<svg version="1" xmlns="http://www.w3.org/2000/svg" width="1182.667" height="1182.667" viewBox="0 0 887.000000 887.000000"><path d="M434 130.6c-58.9 4.3-111.4 23.1-156.9 56.2-96.3 70-141.9 190.7-115.4 305.7 1.3 6 2.6 11.6 2.6 12.4.2 1.4-5.9 5.8-19.2 14l-7.1 4.4.1 32.1c0 17.7-.1 32.7-.3 33.3-.5 1.6 60.9 97.7 63.6 99.5.6.4 25.3.8 54.9.8h53.9l13.6 6.1c45.2 20.3 80.8 28.2 127.2 28.2 46.3 0 83.4-8.2 126.4-27.9l13.8-6.4h74.9l66.4-66.5L799 556h-40c-22.2 0-40-.4-40-.9s1.5-4.2 3.4-8.2c16.6-36.5 24.9-76.5 24.9-119.9 0-43.9-8.4-84-25.4-120.9-2.2-4.6-3.9-8.5-3.9-8.7 0-.2 18-.4 40-.4s40-.3 40-.7c0-.4-29.6-30.3-65.7-66.5L666.5 164h-77.4l-12.8-5.9c-30-13.7-57.8-21.7-89.3-25.6-12.6-1.5-42.8-2.6-53-1.9zm292.7 99.6c33.7 33.7 61.3 61.6 61.3 62 0 .9-190.1 1.1-192.4.2-1.4-.6-1.6-6.9-1.6-62V169h71.5l61.2 61.2zm-354.2-19.7c19.3 16.3 39.4 33.4 44.7 37.9l9.7 8.1v336l-43 36.5c-23.6 20.1-46.1 39.1-49.9 42.3l-7 5.9V171.8l5.3 4.4c2.8 2.5 21 17.9 40.2 34.3zM584 426.7v251.8l-62-62-62-62v-256l61.7-61.7c34-34 61.9-61.8 62-61.8.2 0 .3 113.3.3 251.7zm-352 98.8V582h-89v-56.5l44.3-28.2c24.3-15.5 44.3-28.2 44.5-28.3.1 0 .2 25.4.2 56.5zm556 35.3c0 .4-27.6 28.3-61.3 62L665.5 684H594v-61.4c0-57.7.1-61.5 1.8-61.9 3-.8 192.2-.7 192.2.1zm-471 46c0 25.7-3 63.7-5.8 73.7l-.8 3-53.1.3-53.1.2-28.6-44.5c-15.7-24.4-28.6-44.7-28.6-45 0-.3 38.3-.5 85-.5h85v12.8z"/></svg>