<?xml version="1.0" encoding="UTF-8" standalone="no"?>
<!-- Created with Inkscape (http://www.inkscape.org/) -->

<svg xmlns:dc="http://purl.org/dc/elements/1.1/" xmlns:cc="http://creativecommons.org/ns#" xmlns:rdf="http://www.w3.org/1999/02/22-rdf-syntax-ns#"
  xmlns:svg="http://www.w3.org/2000/svg" xmlns="http://www.w3.org/2000/svg" xmlns:sodipodi="http://sodipodi.sourceforge.net/DTD/sodipodi-0.dtd"
  xmlns:inkscape="http://www.inkscape.org/namespaces/inkscape" version="1.1" id="svg12" width="381.33334" height="326.66666"
  viewBox="0 0 381.33334 326.66666" sodipodi:docname="Origami2.svg" author="Buttface Jeff" inkscape:version="0.92.3 (2405546, 2018-03-11)">
  <defs id="defs16" />
  <sodipodi:namedview pagecolor="#ffffff" bordercolor="#666666" borderopacity="1" objecttolerance="10" gridtolerance="10"
    guidetolerance="10" inkscape:pageopacity="0" inkscape:pageshadow="2" inkscape:window-width="1718"
    inkscape:window-height="980" id="namedview14" showgrid="false" inkscape:zoom="1.0216972" inkscape:cx="190.66667"
    inkscape:cy="163.33333" inkscape:window-x="0" inkscape:window-y="30" inkscape:window-maximized="0"
    inkscape:current-layer="svg12" />
  <path inkscape:connector-curvature="0" id="path3729" d="m 17.962111,319.24621 c -1.94347,-0.22508 -3.53358,-0.81656 -3.53358,-1.31439 0,-0.49783 5.05944,-5.91317 11.24319,-12.03408 l 11.24319,-11.12895 75.168729,-12.90269 c 41.3428,-7.09646 82.1579,-14.01475 90.70021,-15.37394 9.06176,-1.44185 17.89335,-3.65977 21.20144,-5.3244 9.61192,-4.83673 28.15057,-16.94104 27.51687,-17.96639 -0.33005,-0.53405 -15.66225,-6.02099 -34.07153,-12.19322 l -33.47143,-11.22221 -6.33542,2.72543 c -3.48449,1.49899 -41.43995,18.9052 -84.345479,38.68047 -66.77469,30.77663 -81.96218,37.3639 -78.74269,34.15303 0.29447,-0.29367 37.7345,-17.73952 83.20008,-38.76854 l 82.664699,-38.23459 -25.48506,-8.86878 c -22.23486,-7.73773 -26.30443,-8.78103 -31.90974,-8.18063 l -6.42468,0.68816 -28.603169,-47.81483 c -15.73174,-26.29814 -29.13817,-48.68214 -29.79207,-49.74221 -6.38941,-10.358243 -21.91323,-37.194128 -21.91323,-37.88119 0,-1.934354 2.51724,0.349411 8.96888,8.136993 3.71872,4.488766 20.61165,31.376037 37.53984,59.749497 16.92819,28.37345 32.207079,53.46283 33.953089,55.75415 5.32151,6.98356 8.16911,6.75673 18.04066,-1.43705 4.74906,-3.94192 8.9473,-6.85447 9.32942,-6.47234 0.38213,0.38213 -3.02832,4.03516 -7.57877,8.11785 l -8.27355,7.42307 11.51108,3.906 c 6.33109,2.1483 33.7005,11.51582 60.8209,20.81672 27.12042,9.30091 49.52981,16.69077 49.79866,16.42193 0.7712,-0.77122 -68.12063,-85.53798 -69.55496,-85.58269 -0.70672,-0.0221 -5.27448,3.3907 -10.15058,7.58385 -4.87611,4.19315 -9.35005,7.32454 -9.94209,6.95864 -1.30359,-0.80567 18.11343,-17.23775 20.36903,-17.23775 0.87527,0 8.7793,4.58323 17.56449,10.18496 l 15.97308,10.18495 51.03072,-80.535169 c 28.06689,-44.294344 51.24902,-80.7760959 51.51584,-81.0705603 0.26683,-0.2944643 0.79947,-0.2210603 1.18364,0.16312 C 318.756,9.992611 308.86466,26.423722 296.39106,46.122011 230.30277,150.48851 217.45053,170.99378 217.47378,172.03175 c 0.0258,1.15334 31.79662,21.69471 33.55464,21.69471 1.19944,0 45.74218,-67.95031 48.07848,-73.34412 0.94281,-2.17668 5.24675,-22.125304 9.56429,-44.330268 4.31753,-22.204965 8.12851,-41.239995 8.46884,-42.300067 0.92152,-2.870465 12.09771,-10.773988 12.09771,-8.555196 0,2.164138 -19.32493,101.549751 -19.84731,102.072131 -0.19998,0.19997 -2.13924,-0.65549 -4.30948,-1.90104 -2.17024,-1.24555 -4.21947,-1.98638 -4.55384,-1.64629 -0.33438,0.34009 -14.49971,21.93944 -31.47853,47.99855 l -30.87059,47.38022 8.936,11.08434 c 9.83195,12.19573 10.50752,13.96611 12.81044,33.57072 0.87167,7.4205 1.97937,13.94138 2.46156,14.49083 0.48218,0.54947 9.79431,-30.09624 20.69362,-68.10157 19.74652,-68.855 19.8295,-69.10203 23.35052,-69.50717 2.43937,-0.28068 3.53357,0.17943 3.53357,1.48587 0,1.23646 -0.85896,1.66784 -2.47798,1.24445 -2.86996,-0.75052 -0.60787,-7.66673 -23.17551,70.85751 -16.91989,58.87281 -16.62146,56.58796 -7.58261,58.05475 l 4.49151,0.72888 17.73483,-62.43187 c 9.75415,-34.33754 18.24547,-62.11629 18.86957,-61.73057 0.62411,0.38572 1.13474,-0.2183 1.13474,-1.34226 0,-6.45925 12.73478,-1.838 31.73702,11.5169 15.1572,10.65258 23.85822,18.33397 22.76722,20.09926 -0.31851,0.51535 -5.59296,-0.75781 -11.72101,-2.82921 -6.12805,-2.07142 -12.04534,-3.76977 -13.14952,-3.77413 -1.10417,-0.004 -3.67721,-0.87865 -5.71787,-1.94287 -4.07386,-2.12459 -17.48056,-6.25864 -18.01955,-5.55646 -0.1858,0.24206 -8.54459,29.32043 -18.57508,64.61859 -10.03049,35.29818 -18.47757,64.41881 -18.77129,64.71252 -0.29371,0.29371 -3.27037,-0.39833 -6.61477,-1.53789 -7.98668,-2.72134 -7.75908,-2.78229 -9.51875,2.54957 -3.88752,11.7793 -2.8207,11.72884 -19.30752,0.91332 -19.89027,-13.04822 -21.06509,-13.51047 -28.93563,-11.38493 -3.47909,0.93958 -14.42071,2.98631 -24.31472,4.54832 -9.894,1.56199 -44.58726,7.42465 -77.09613,13.02812 -32.508869,5.60346 -61.130809,10.51476 -63.604309,10.91396 -2.4735,0.39921 -11.72504,1.97465 -20.55897,3.50098 -8.83393,1.52632 -17.6518,2.59096 -19.59526,2.36587 z M 257.91779,265.41465 c -1.24062,-9.74649 -2.69027,-18.2018 -3.22144,-18.78956 -0.53116,-0.58777 -7.07734,2.79065 -14.54709,7.50758 l -13.58131,8.57627 16.27979,10.73626 c 8.95389,5.90495 16.51513,10.50093 16.80276,10.21331 0.28762,-0.28763 -0.49209,-8.49737 -1.73271,-18.24386 z m -14.25371,-58.91663 c 3.53479,-5.43282 5.79038,-10.12272 5.13974,-10.68671 -3.25432,-2.821 -58.53204,-37.65596 -59.0045,-37.18351 -0.66334,0.66334 45.55751,57.59221 46.74014,57.56843 0.45396,-0.009 3.66005,-4.37332 7.12462,-9.69821 z m 93.28327,-64.35132 c -12.36751,-6.58713 -23.06459,-12.19734 -23.77131,-12.46713 -0.70671,-0.26979 -0.90038,-0.90605 -0.43037,-1.41391 0.47,-0.50787 10.29976,4.01213 21.8439,10.04444 21.40152,11.18323 26.62141,14.31132 25.4846,15.272 -0.35225,0.29765 -10.75932,-4.84827 -23.12682,-11.4354 z"
    style="fill:#d9a29a;stroke-width:1.28493547" />
  <path inkscape:connector-curvature="0" id="path3727" d="m 14.744821,317.9508 c -0.35924,-0.58126 4.19933,-5.88415 10.13017,-11.78418 l 10.78334,-10.72732 28.6633,-4.92807 c 59.569109,-10.2417 140.676009,-23.95603 146.322549,-24.7416 3.22841,-0.44916 9.58884,-2.55348 14.13429,-4.67626 7.30154,-3.40992 7.83984,-3.51342 4.6201,-0.8884 l -3.64432,2.97121 15.74949,10.24788 c 21.25918,13.83292 19.68477,13.01569 18.83822,9.77845 -0.4532,-1.73302 -0.11886,-2.74291 0.90808,-2.74291 0.98977,0 3.80599,-7.52106 7.20176,-19.23327 3.06703,-10.5783 5.79889,-19.01078 6.07082,-18.73885 0.27193,0.27192 -1.0709,6.01023 -2.98407,12.75178 -1.91315,6.74156 -3.17787,13.04071 -2.81048,13.99813 0.61476,1.60201 10.90883,5.53199 11.89837,4.54245 0.23827,-0.23827 8.33282,-28.17751 17.98789,-62.08719 9.65508,-33.90969 17.97478,-61.9431 18.48823,-62.29646 0.51345,-0.35336 1.29607,-1.62621 1.73918,-2.82857 0.74776,-2.029 1.38741,-1.99379 8.90083,0.4899 11.9626,3.95445 46.94856,28.80284 44.29288,31.45852 -0.61926,0.61925 -22.58664,-6.20395 -35.86531,-11.13998 -8.05687,-2.99495 -12.77953,-2.99166 -13.25366,0.009 -0.48014,3.03897 -35.2397,124.84511 -35.95883,126.00868 -0.35445,0.57351 -3.80013,-0.0429 -7.65707,-1.36994 -7.54833,-2.59701 -7.62941,-2.56773 -8.89175,3.21234 -0.46303,2.12014 -1.83203,5.13349 -3.0422,6.69633 l -2.20034,2.84175 -14.77676,-9.69067 c -19.15006,-12.5587 -19.10347,-12.5425 -29.41969,-10.23423 -4.66725,1.04431 -32.77119,5.97962 -62.4532,10.96735 -29.68201,4.98773 -72.470359,12.2415 -95.085229,16.1195 -41.89087,7.18343 -47.53342,7.8805 -48.68659,6.01464 z m 3.07138,-23.99938 c 1.76679,-1.00998 3.79056,-1.83634 4.49728,-1.83634 0.70671,0 -0.16062,0.82636 -1.92741,1.83634 -1.76678,1.00999 -3.79056,1.83634 -4.49727,1.83634 -0.70671,0 0.16062,-0.82635 1.9274,-1.83634 z m 15.41923,-7.06714 c 1.06007,-0.68508 2.50562,-1.24558 3.21234,-1.24558 0.70671,0 0.4176,0.5605 -0.64247,1.24558 -1.06007,0.68507 -2.50562,1.24557 -3.21234,1.24557 -0.70671,0 -0.4176,-0.5605 0.64247,-1.24557 z m 17.9891,-8.35208 c 1.76678,-1.00999 3.79056,-1.83634 4.49727,-1.83634 0.70671,0 -0.16062,0.82635 -1.9274,1.83634 -1.76679,1.00998 -3.79056,1.83634 -4.49728,1.83634 -0.70671,0 0.16062,-0.82636 1.92741,-1.83634 z m 208.410049,-2.56987 c 0.0262,-2.12015 0.31416,-2.83192 0.63995,-1.58172 0.32578,1.2502 0.30436,2.98487 -0.0477,3.8548 -0.35199,0.86994 -0.61853,-0.15294 -0.59235,-2.27308 z M 67.928691,270.82258 c 1.76678,-1.00998 3.79056,-1.83634 4.49727,-1.83634 0.70672,0 -0.16062,0.82636 -1.9274,1.83634 -1.76679,1.00999 -3.79056,1.83634 -4.49728,1.83634 -0.70671,0 0.16062,-0.82635 1.92741,-1.83634 z m 190.468559,-4.49727 c 0,-2.4735 0.26444,-3.48539 0.58764,-2.24864 0.32319,1.23675 0.32319,3.26053 0,4.49728 -0.3232,1.23675 -0.58764,0.22486 -0.58764,-2.24864 z M 83.347911,263.99809 c 2.4735,-1.36299 25.024129,-11.90222 50.112489,-23.42049 25.08837,-11.51829 46.12,-21.37876 46.73697,-21.91216 0.61696,-0.53339 -1.34604,-1.70917 -4.36223,-2.61285 -3.01619,-0.90367 -4.96653,-1.80115 -4.3341,-1.99439 0.63245,-0.19324 18.49652,5.63579 39.69796,12.95342 21.20143,7.31763 38.99367,13.04396 39.5383,12.72518 0.54463,-0.31878 -3.82653,-6.46486 -9.71368,-13.65795 -5.88716,-7.1931 -16.74074,-20.52393 -24.11908,-29.62409 -7.37834,-9.10014 -18.8378,-23.2123 -25.4655,-31.36035 -6.62768,-8.14804 -11.19073,-14.48477 -10.14011,-14.0816 1.05063,0.40316 8.66596,5.11923 16.92297,10.48015 8.25699,5.36093 15.42203,9.72421 15.92231,9.69618 0.50028,-0.028 11.26993,-16.52934 23.93257,-36.6696 20.55487,-32.69308 28.64758,-45.017277 25.66894,-39.090636 -0.53279,1.060071 -11.17383,18.117586 -23.64676,37.905596 -12.47294,19.788 -23.09583,36.69385 -23.60643,37.56853 -1.08289,1.85507 31.99246,23.97861 34.44292,23.03828 1.68828,-0.64785 43.59163,-64.32382 47.23944,-71.78465 1.27818,-2.61424 6.06979,-23.644018 10.64805,-46.732846 4.57825,-23.088828 9.01806,-42.815873 9.86624,-43.837876 0.84819,-1.022003 3.17439,-2.702242 5.16933,-3.733864 3.32213,-1.717945 3.6268,-1.683805 3.62305,0.405959 -0.004,1.926425 -6.34031,35.682234 -16.16764,86.123667 -1.2736,6.53711 -2.94219,11.88565 -3.708,11.88565 -0.76579,0 -2.60445,-0.84898 -4.08589,-1.88662 -2.40153,-1.6821 -2.90118,-1.64728 -4.60896,0.32123 -2.25043,2.59401 -60.1258,91.40452 -60.92781,93.49453 -0.30002,0.78182 3.53551,6.52293 8.52341,12.75803 9.12046,11.40099 11.04812,15.19278 9.92792,19.52871 -0.34425,1.33245 -0.67175,0.54179 -0.75626,-1.82578 -0.17771,-4.97891 -0.77072,-5.08411 -6.5967,-1.17011 -7.42015,4.98498 -12.26125,7.82614 -10.89899,6.39643 0.70672,-0.74172 4.36553,-3.38789 8.13069,-5.88039 3.81718,-2.52693 6.24058,-4.90585 5.47782,-5.37726 -3.35977,-2.07645 -64.89094,-22.55848 -67.76914,-22.55848 -1.76889,0 -25.28877,10.17328 -52.26637,22.60729 -48.258529,22.24241 -57.317869,26.23297 -48.407729,21.32316 z m 160.232549,-57.03198 6.66832,-10.53166 -6.03307,-4.02898 c -19.86813,-13.26826 -55.6912,-35.53986 -56.25604,-34.97502 -0.68629,0.68628 47.02522,60.06732 48.26289,60.06732 0.37928,0 3.69033,-4.73924 7.3579,-10.53166 z m 13.53185,50.36465 c 0,-2.4735 0.26444,-3.48538 0.58764,-2.24863 0.32319,1.23675 0.32319,3.26052 0,4.49727 -0.3232,1.23675 -0.58764,0.22486 -0.58764,-2.24864 z m 17.79899,-17.34663 c -0.0402,-0.70671 1.06104,-4.75426 2.44718,-8.99454 1.38615,-4.24029 2.17248,-5.70656 1.74741,-3.25838 -0.84662,4.87609 -4.07739,14.31356 -4.19459,12.25292 z m 6.49731,-22.48636 c 0,-1.06008 0.49693,-3.08385 1.10431,-4.49728 0.69607,-1.61984 1.10431,-1.85735 1.10431,-0.64247 0,1.06008 -0.49694,3.08385 -1.10431,4.49728 -0.69608,1.61984 -1.10431,1.85735 -1.10431,0.64247 z m -118.39469,-5.78221 c -2.4735,-0.95254 -3.62995,-1.7498 -2.56987,-1.7717 1.06007,-0.0218 3.66206,0.75449 5.78221,1.7253 4.96249,2.27228 2.65429,2.30562 -3.21234,0.0464 z m -18.39064,-6.0175 c -6.22792,-2.13796 -11.09767,-4.11304 -10.82167,-4.38904 0.54459,-0.5446 22.76828,6.74654 23.84468,7.82294 1.22628,1.22627 -1.6808,0.45974 -13.02301,-3.4339 z m 139.3552,2.80516 c 0,-1.06007 0.49693,-3.08385 1.10431,-4.49728 0.69607,-1.61984 1.10431,-1.85734 1.10431,-0.64246 0,1.06007 -0.49694,3.08384 -1.10431,4.49727 -0.69608,1.61984 -1.10431,1.85735 -1.10431,0.64247 z M 87.599191,153.2563 c -16.11914,-26.92122 -30.37919,-50.80105 -31.68901,-53.0663 -1.30981,-2.265245 -6.1394,-10.371614 -10.7324,-18.014152 -4.59301,-7.642538 -8.082,-14.164445 -7.75332,-14.493127 1.86028,-1.860273 18.30379,22.842407 45.40612,68.212469 16.88354,28.26353 32.350949,53.27159 34.372019,55.57346 2.15488,2.45428 4.90171,4.18521 6.64153,4.18521 1.64884,0 6.58447,-2.91513 11.11008,-6.56193 l 8.14321,-6.56195 -8.18794,7.58043 c -8.05473,7.45711 -8.13835,7.60328 -5.13974,8.98544 2.76959,1.27661 2.57842,1.39001 -2.09155,1.24079 -2.82686,-0.0903 -6.40688,0.29287 -7.95561,0.85154 -2.60232,0.93875 -5.03851,-2.69634 -32.123389,-47.93188 z m 198.949159,46.25237 c 0,-1.06007 0.49693,-3.08384 1.10431,-4.49727 0.69608,-1.61984 1.10431,-1.85735 1.10431,-0.64247 0,1.06007 -0.49693,3.08384 -1.10431,4.49727 -0.69608,1.61984 -1.10431,1.85735 -1.10431,0.64247 z m 2.56987,-8.99455 c 0,-1.06007 0.49693,-3.08384 1.10431,-4.49727 0.69608,-1.61984 1.10431,-1.85735 1.10431,-0.64247 0,1.06007 -0.49693,3.08385 -1.10431,4.49727 -0.69607,1.61985 -1.10431,1.85735 -1.10431,0.64247 z m 2.56987,-8.99455 c 0,-1.06007 0.49694,-3.08384 1.10431,-4.49727 0.69608,-1.61984 1.10431,-1.85735 1.10431,-0.64247 0,1.06007 -0.49693,3.08385 -1.10431,4.49728 -0.69607,1.61984 -1.10431,1.85735 -1.10431,0.64246 z m 2.56987,-8.99454 c 0,-1.06007 0.49694,-3.08385 1.10431,-4.49728 0.69608,-1.61984 1.10431,-1.85735 1.10431,-0.64246 0,1.06007 -0.49693,3.08384 -1.10431,4.49727 -0.69607,1.61984 -1.10431,1.85735 -1.10431,0.64247 z m -133.70042,-5.46098 c 0.29799,-0.17668 2.56269,-2.05589 5.03267,-4.17604 l 4.49085,-3.8548 -3.77397,4.17604 c -2.07568,2.29682 -4.34038,4.17604 -5.03267,4.17604 -0.69227,0 -1.01488,-0.14456 -0.71688,-0.32124 z m 136.27029,-3.53357 c 0,-1.06007 0.49694,-3.08385 1.10431,-4.49727 0.69608,-1.61985 1.10432,-1.85735 1.10432,-0.64247 0,1.06007 -0.49694,3.08384 -1.10432,4.49727 -0.69607,1.61984 -1.10431,1.85735 -1.10431,0.64247 z m -126.1043,-4.25688 c 0,-0.22113 1.87922,-2.10035 4.17604,-4.17604 l 4.17604,-3.77397 -3.77397,4.17604 c -3.51787,3.89266 -4.57811,4.76666 -4.57811,3.77397 z m 128.62537,-3.89744 c -0.0725,-0.59794 0.77654,-4.21182 1.88676,-8.03084 1.51358,-5.20656 2.61972,-6.94368 4.42144,-6.94368 1.32157,0 2.75969,0.57736 3.1958,1.28301 0.45228,0.7318 -0.39983,1.14583 -1.98335,0.9637 -2.31963,-0.26678 -3.15566,0.84319 -5.08256,6.74784 -1.26845,3.88693 -2.36559,6.57792 -2.43809,5.97997 z m 47.41079,-8.54984 c -1.1581,-0.74842 -1.31658,-1.25344 -0.39707,-1.26526 0.84169,-0.0103 1.8877,0.55854 2.32448,1.26526 0.98593,1.59529 0.54111,1.59529 -1.92741,0 z m -5.85785,-3.28323 c -2.39515,-1.91891 -2.37939,-1.94263 0.39688,-0.59725 1.5901,0.77056 2.8911,1.66979 2.8911,1.99828 0,0.98326 -0.66638,0.69931 -3.28798,-1.40103 z m -21.44703,-10.93346 c -4.06361,-2.09748 -7.38838,-4.10177 -7.38838,-4.45397 0,-0.3522 3.46933,1.11094 7.70962,3.25143 4.24028,2.14049 7.70961,4.17259 7.70961,4.51578 0,0.85666 0.23827,0.95495 -8.03085,-3.31324 z M 270.9485,82.57955 c 0.75644,-1.413429 1.66447,-2.569871 2.01782,-2.569871 0.35336,0 0.0235,1.156442 -0.73289,2.569871 -0.75644,1.413429 -1.66446,2.569871 -2.01782,2.569871 -0.35336,0 -0.0235,-1.156442 0.73289,-2.569871 z m 6.25964,-9.637016 c 0.69392,-1.413428 2.20326,-3.726312 3.3541,-5.139741 l 2.09244,-2.569871 -1.26166,2.569871 c -0.69392,1.413429 -2.20327,3.726313 -3.35411,5.139741 l -2.09244,2.569871 z m 9.15958,-14.776756 c 0.75645,-1.413429 1.66447,-2.569871 2.01783,-2.569871 0.35336,0 0.0235,1.156442 -0.73289,2.569871 -0.75644,1.413428 -1.66447,2.56987 -2.01782,2.56987 -0.35336,0 -0.0235,-1.156442 0.73288,-2.56987 z m 8.99455,-14.13429 c 0.75644,-1.413429 1.66447,-2.569871 2.01783,-2.569871 0.35335,0 0.0235,1.156442 -0.73289,2.569871 -0.75644,1.413429 -1.66447,2.569871 -2.01783,2.569871 -0.35335,0 -0.0235,-1.156442 0.73289,-2.569871 z m 6.25964,-9.637015 c 0.69392,-1.413429 2.20327,-3.726313 3.35411,-5.139742 l 2.09244,-2.56987 -1.26167,2.56987 c -0.69391,1.413429 -2.20326,3.726313 -3.3541,5.139742 l -2.09244,2.569871 z m 9.15959,-14.776757 c 0.75644,-1.413429 1.66447,-2.569871 2.01782,-2.569871 0.35336,0 0.0235,1.156442 -0.73289,2.569871 -0.75644,1.413429 -1.66446,2.569871 -2.01782,2.569871 -0.35336,0 -0.0235,-1.156442 0.73289,-2.569871 z"
    style="fill:#c0796f;stroke-width:1.28493547" />
</svg>
