<svg xmlns="http://www.w3.org/2000/svg" width="381" height="327" viewBox="0 0 436 350.7" class="undefined">
  <style>
    .a {
      fill: #c8847a;
    }

    .b {
      fill: #bf796f;
    }

    .c {
      fill: #fff;
      stroke-width: 0.8;
    }
  </style>
  <path d="m17 341.6c-2-0.2-3.7-0.8-3.7-1.3 0-0.5 4.7-5.6 10.3-11.3L34 318.5l-5.3 0.9c-2.9 0.5-7.6 1.4-10.3 2-2.8 0.6-5.3 0.5-5.7-0.1-0.4-0.7-1.9-1.2-3.3-1.2-1.5 0-2.6-0.9-2.6-2.2 0-1.2 18.8-21.1 41.7-44.1 43-43.2 45-44.9 62.1-51 5.8-2.1 8.2-3.6 7.7-4.8C117.5 216.1 99.3 185.6 58 116.7 36.4 80.6 35.5 79 37.7 78.3 38.8 78 37.9 75.5 35 70.8 30.1 62.8 29.5 59.6 33.1 60.2 35.3 60.6 131.4 172.7 147.4 193.5l2.7 3.5 4.6-4.3c3.8-3.4 5.7-7.4 10.3-20.8 3.1-9.1 7.6-19.5 10-23.1 3-4.5 17.7-17.7 47.5-42.7 46.4-38.9 52-43.5 81.8-68.5 10.7-9 20.3-16.3 21.2-16.3 1 0 2.5-1.2 3.5-2.8 1.3-2.1 2.2-2.4 3.5-1.3 1.4 1.2 1.3 3.5-0.6 13.1-1.3 6.4-2.2 11.8-2.1 11.9 0.2 0.2 2.5-1.5 5.2-3.8C337.9 36.2 340 35.2 340 36.2c0 0.9-4.5 24.6-10 52.6-5.5 28-10 51.3-10 51.7 0 0.5 1.2-0.4 2.7-1.8 4.8-4.8 8.6-3.4 28.1 10.3 13.8 9.7 18.5 13.7 18.5 15.8 0 1.9 1.4 3.4 4 4.5 2.4 1 4 2.6 4 4.2 0 3.2-0.3 3.2-12-0.8-5.4-1.8-10-3.1-10.3-2.9-0.3 0.3 5.4 4.6 12.6 9.6 12.8 9 20 15.8 18 17-0.6 0.3-11.5-2.9-24.4-7.2-12.8-4.3-24-7.8-24.7-7.8-0.8 0-10 30.3-20.5 67.3-10.5 37-19.7 67.3-20.3 67.3-0.6 0-4.1-1.1-7.8-2.5l-6.7-2.5-1.4 5.1c-0.8 2.8-2.2 6.6-3.1 8.5l-1.7 3.4-13.9-9.3c-20.5-13.8-22.9-14.9-28.9-13.2-2.7 0.8-28.1 5.3-56.3 10-28.2 4.7-74.7 12.7-103.3 17.6-28.6 5-53.6 8.8-55.7 8.6zM77.2 309.4C110.6 303.6 154.8 296.1 175.3 292.7c48-7.9 53.5-9.2 60.4-14.1 3.1-2.2 6-4 6.4-4 0.4 0 4.7-2.7 9.5-5.9 8.8-5.9 8.8-6 5.3-7.3-2-0.7-18-6.2-35.6-12.2l-32-10.9-6.4 2.8C172.9 245.4 19.7 316 16 318.1c-1.8 1-2.5 1.8-1.5 1.9 1 0 29.2-4.7 62.7-10.5zm-60.3 5.4c6.8-3.3 88.8-41.3 148.9-68.9l19.7-9.1-28.1-9.7-28.1-9.7-7 2.4c-3.8 1.3-11.8 4.3-17.6 6.7L94 230.8 51 273.7c-23.6 23.6-43 43.4-43 43.9 0 1.5 0.3 1.4 8.9-2.9zM265.9 286.2c-1.3-9.9-2.8-18.7-3.3-19.6-0.6-1-5.8 1.5-15.2 7.5l-14.2 9 17 11.1c9.4 6.1 17.2 10.8 17.5 10.6 0.3-0.3-0.6-8.6-1.9-18.5zm26.8-60c12.1-42.5 20.5-69.4 21.6-69.8 2.1-0.8 13.1 2.3 41.7 11.6 17 5.6 21.9 6.7 19.9 4.8-1.2-1.2-63.9-34.1-64.9-34.1-0.6 0-2.5 2.3-4.3 5-1.8 2.7-16.3 25-32.2 49.5l-28.9 44.6 9.2 11.4c10 12.4 10.8 14.4 13.1 34.2 1.9 16 2.5 18.4 4 14.7 0.6-1.5 9.9-33.8 20.8-71.8zm15.9 2.6c10-35.1 17.9-64.6 17.5-65.5-0.7-1.8-9.9-5.3-11-4.2-0.6 0.6-35.7 121-37.4 128.4-0.6 2.4 0.3 3.2 5.1 4.8 3.2 1.1 6.2 1.6 6.7 1.2 0.5-0.5 9.1-29.6 19.1-64.7zm-51.3 27.5C253.9 250.4 187.1 170 185.7 170c-2.3 0-54.5 45-53 45.7 4.9 2 123 42.7 124.3 42.8 1.3 0.1 1.4-0.4 0.3-2.2zm-6.2-31.7c3.7-5.6 6-10.5 5.3-11.1-3-2.6-60.7-39.1-61.2-38.6-0.6 0.6 47.5 59.8 48.5 59.8 0.4 0 3.7-4.5 7.3-10.1zm-112.8-18.8c4.9-4.1 9.1-7.9 9.2-8.4C148.1 196.5 35 62.2 33.2 61.6 32.5 61.3 32 61.4 32 61.8c0 2.2 86.3 144.9 89.5 147.9 2.1 2 4.8 3.7 6 3.7 1.1 0 6.1-3.4 11-7.5zm146-32.4 25.1-38.6 3.8-18.4c7.4-35.4 18.7-95.5 18.3-96.8-0.2-0.7-24.6 36.9-54.2 83.6-37.2 58.6-53.4 85.3-52.4 86.3 1.6 1.6 32.6 22.2 33.7 22.3 0.4 0.1 12-17.3 25.7-38.5zm-55.1 2.9c7.7-12.3 68.2-107.9 86.4-136.6 5.9-9.3 10.4-17 9.9-17-0.5 0-8.4 6.4-17.6 14.1-9.2 7.8-41.3 34.7-71.4 59.9-30.1 25.2-56.3 47.8-58.1 50.2-4.8 6.4-5.8 8.5-11.6 25l-5.2 14.8 7.5-6.3c4.2-3.5 9.5-8 11.9-10.1l4.4-3.7 4.4 3.3c2.4 1.8 4.7 3.1 5 2.8 0.3-0.3 6 2.9 12.5 7.2 6.6 4.3 12.6 7.9 13.3 7.9 0.7 0 4.6-5.2 8.6-11.6zm138.6-12.8c-5-4.4-37.1-26.2-38.6-26.2-1.2 0-3.2 0.8-4.6 1.8-2 1.5-2.1 2-0.6 3 6.2 3.9 43.3 23 43.7 22.5 0.3-0.3 0.3-0.8 0-1.1zM41.3 81.2c-0.8-1.5-1.8-2.4-2.2-2-0.4 0.4 0 1.7 0.9 2.8 2.4 2.9 3 2.5 1.3-0.7z"
    class="a" />
  <path d="m14.7 340.2c0-0.6 4.2-5.5 9.2-11 5.1-5.4 9-10.2 8.7-10.6-0.5-0.8 38.4-7.8 136.7-24.5 47.2-8 57.9-10.2 64-13.3 7-3.5 7.2-3.5 3.5-0.5l-3.8 3.2 15.2 9.8c8.3 5.4 16.5 10.7 18.2 11.8 3 2 3 1.9 2.5-4.5-0.3-3.6-0.3-5.1 0.1-3.4 1.1 5.6 3.5 2.2 6.8-9.5 1.8-6.4 3.5-11.4 3.9-11.1 0.3 0.3-0.2 3-1 5.9-0.9 2.9-1.3 6.2-0.9 7.2 0.7 1.8 11.4 5.8 12.5 4.6 0.3-0.3 8.8-29.3 18.8-64.4 10-35.1 18.7-64 19.3-64.3 0.6-0.2 1.1-1.7 1.1-3.1 0-2 0.6-2.5 2.3-1.8 1.3 0.5 5.7 2.1 9.9 3.5 8.3 2.8 35.8 21.6 40.9 28 1.7 2.1 2.6 3.9 2 3.9-1.5 0-27.4-8.5-36.4-11.9-9.2-3.5-14.7-3.6-14.7-0.4 0 1.3-8.2 31.3-18.2 66.7-20 70.6-18 66-28.3 62.4-5.9-2.1-6.1-2-7.4 3.9-0.5 2.2-1.9 5.3-3.2 7L274 326.6 256.7 315.2c-13.4-8.8-18.1-11.3-20.7-10.8-1.9 0.4-14.2 2.5-27.4 4.7-13.2 2.2-60.7 10.4-105.6 18.1-44.9 7.7-83.1 14.1-85 14.1-1.9 0-3.4-0.5-3.4-1.1zM15.8 320.4c1-0.4 2.1-0.3 2.6 0.1 0.4 0.4-0.3 0.8-1.7 0.7-1.6-0.1-1.9-0.4-0.8-0.8zm11.6-24.4c6.6-6.6 12.2-12 12.6-12 0.4 0-4.7 5.4-11.3 12-6.6 6.6-12.2 12-12.6 12-0.4 0 4.7-5.4 11.3-12zm10.1 10.2C37.8 305.9 39.5 305 41.3 304.1c3.1-1.5 3.2-1.5 0.7 0.5-2.1 1.7-6.5 3.2-4.6 1.6zm21.2-10.2c1.1-0.7 2.6-1.3 3.3-1.3 0.7 0 0.4 0.6-0.7 1.3-1.1 0.7-2.6 1.3-3.3 1.3-0.7 0-0.4-0.6 0.7-1.3zm14.7-6.7c1.1-0.7 2.6-1.3 3.3-1.3 0.7 0 0.4 0.6-0.7 1.3-1.1 0.7-2.6 1.3-3.3 1.3-0.7 0-0.4-0.6 0.7-1.3zm193.6-2c0-2.2 0.3-2.9 0.7-1.6 0.3 1.3 0.3 3.1 0 4-0.4 0.9-0.6-0.2-0.6-2.4zM88 282.7c4-2.1 7.9-3.9 8.7-3.9 0.7 0-2 1.7-6 3.9-4 2.1-7.9 3.9-8.7 3.9-0.7 0 2-1.7 6-3.9zm177.6-5.3c0-2.6 0.3-3.6 0.6-2.3 0.3 1.3 0.3 3.4 0 4.7-0.3 1.3-0.6 0.2-0.6-2.3zm-160.3-2.7c4-2.1 7.9-3.9 8.7-3.9 0.7 0-2 1.7-6 3.9-4 2.1-7.9 3.9-8.7 3.9-0.7 0 2-1.7 6-3.9zm174.9-1.3c0-1.1 0.5-3.2 1.1-4.7 0.7-1.7 1.1-1.9 1.1-0.7 0 1.1-0.5 3.2-1.1 4.7-0.7 1.7-1.1 1.9-1.1 0.7zm-16-5c-0.2-5.1-0.4-5.2-6.7-1.5-4.8 2.8-4.8 2.8-1.5 0 1.8-1.5 3.8-2.8 4.4-2.8 3.8-0.1-2.5-3.2-15.2-7.4-8.1-2.7-14.5-5.1-14.2-5.4 0.3-0.3 6.6 1.5 14.1 4 7.5 2.5 13.8 4.1 14.1 3.6 0.3-0.5-12.6-17.1-28.8-36.9-37.6-46.1-38.1-46.7-36.3-45.6 0.8 0.5 12.2 14.1 25.3 30.3 13.1 16.1 24.1 29.3 24.5 29.3 0.9 0 15-21.4 14.5-21.9-0.2-0.2-8.8-5.8-19.1-12.5-10.3-6.7-18.2-12.1-17.7-12.2 0.5 0 8.9 5.1 18.5 11.4 9.6 6.3 18.3 11.1 19.1 10.8 0.9-0.3 12.5-17.3 25.8-37.8 18.2-27.9 24.7-39 26.1-44.5 1-4 5.4-25.1 9.7-46.8l7.8-39.4 5.1-2.8c4.5-2.5 5.1-2.5 5.1-0.6 0 1.2-4.4 24.8-9.7 52.3l-9.7 50.1-4.4-2.6c-2.4-1.4-4.6-2.3-4.9-2.1-1.1 1.2-63.8 97.9-64.3 99.2-0.3 0.8 3.7 6.7 8.9 13.2 9.5 11.8 11.5 15.8 10.3 20.3-0.4 1.4-0.7 0.6-0.8-1.9zm-143.5-0.6c6.8-3.6 14-6.6 14-5.9 0 0.7-17.3 8.8-18.5 8.8-0.5 0 1.5-1.3 4.5-2.9zm162.2-3.7c0-1.1 0.5-3.2 1.1-4.7 0.7-1.7 1.1-1.9 1.1-0.7 0 1.1-0.5 3.2-1.1 4.7-0.7 1.7-1.1 1.9-1.1 0.7zM150 254.3c8.1-3.9 19.3-9.2 25-11.7 6.9-3.1 10.1-5.2 9.7-6.4-0.4-1.1 0.1-1.6 1-1.2 0.9 0.3 9.4 3.2 18.8 6.3 9.4 3.1 16.9 5.9 16.6 6.2-0.3 0.3-6.7-1.6-14.3-4.1-7.6-2.6-15.3-4.7-17.1-4.7-1.8 0-13.8 4.9-26.7 10.8-12.9 6-24.4 11.1-25.5 11.4-1.1 0.3 4.6-2.6 12.7-6.5zm135.5 0.3c0-1.1 0.5-3.2 1.1-4.7 0.7-1.7 1.1-1.9 1.1-0.7 0 1.1-0.5 3.2-1.1 4.7-0.7 1.7-1.1 1.9-1.1 0.7zm2.7-9.3c0-1.1 0.5-3.2 1.1-4.7 0.7-1.7 1.1-1.9 1.1-0.7 0 1.1-0.5 3.2-1.1 4.7-0.7 1.7-1.1 1.9-1.1 0.7zM290.9 236c0-1.1 0.5-3.2 1.1-4.7 0.7-1.7 1.1-1.9 1.1-0.7 0 1.1-0.5 3.2-1.1 4.7-0.7 1.7-1.1 1.9-1.1 0.7zM170 230.7c-1.8-0.8-2-1.2-0.7-1.2 1.1 0 2.9 0.5 4 1.2 2.4 1.6 0.3 1.6-3.3 0zm-21.1-6.9c-6.5-2.2-11.5-4.3-11.2-4.6 0.6-0.6 23.6 7 24.7 8.1 1.3 1.3-1.7 0.5-13.5-3.6zm144.6 2.9c0-1.1 0.5-3.2 1.1-4.7 0.7-1.7 1.1-1.9 1.1-0.7 0 1.1-0.5 3.2-1.1 4.7-0.7 1.7-1.1 1.9-1.1 0.7zM90.1 169.6C73.5 141.9 59.3 118.4 58.6 117.3 52.1 107 37.4 80.8 37.8 80.4c0.3-0.3 1.9 1.3 3.5 3.5 1.6 2.3 3.6 3.7 4.4 3.2 0.9-0.5 1.1-0.3 0.5 0.7-0.5 0.8-0.4 1.5 0.2 1.5 0.7 0 2.8 2.9 4.8 6.3 13.1 23.3 66.5 110.6 69.6 113.8 2.1 2.2 5.1 3.9 6.7 3.9 1.6 0 6.8-3.1 11.4-6.8l8.4-6.8-8.5 7.9c-8.4 7.8-8.5 7.9-5.3 9.4 2.9 1.5 2.8 1.5-1.5 0.9-2.6-0.4-6.3-0.1-8.2 0.6-3.5 1.3-3.6 1.2-33.7-48.9zm206.1 47.7c0-1.1 0.5-3.2 1.1-4.7 0.7-1.7 1.1-1.9 1.1-0.7 0 1.1-0.5 3.2-1.1 4.7-0.7 1.7-1.1 1.9-1.1 0.7zM298.9 208c0-1.1 0.5-3.2 1.1-4.7 0.7-1.7 1.1-1.9 1.1-0.7 0 1.1-0.5 3.2-1.1 4.7-0.7 1.7-1.1 1.9-1.1 0.7zm2.7-9.3c0-1.1 0.5-3.2 1.1-4.7 0.7-1.7 1.1-1.9 1.1-0.7 0 1.1-0.5 3.2-1.1 4.7-0.7 1.7-1.1 1.9-1.1 0.7zm2.7-9.3c0-1.1 0.5-3.2 1.1-4.7 0.7-1.7 1.1-1.9 1.1-0.7 0 1.1-0.5 3.2-1.1 4.7-0.7 1.7-1.1 1.9-1.1 0.7zM212 183.9c-2.9-2.3-2.9-2.5-0.4-1.3 1.6 0.8 3.3 2 3.7 2.8 1.2 1.9 0.4 1.6-3.3-1.5zm-76.2-2.2c-1.7-2.1-1.6-2.2 0.5-0.5 1.3 1 2.3 2.1 2.3 2.3 0 1.1-1.1 0.4-2.8-1.8zM170 180c1.3-1.5 2.7-2.7 3.1-2.7 0.4 0-0.4 1.2-1.7 2.7-1.3 1.5-2.7 2.7-3.1 2.7-0.4 0 0.4-1.2 1.7-2.7zm136.9 0c0-1.1 0.5-3.2 1.1-4.7 0.7-1.7 1.1-1.9 1.1-0.7 0 1.1-0.5 3.2-1.1 4.7-0.7 1.7-1.1 1.9-1.1 0.7zm-107.5-4c-2.2-1.5-3.4-2.6-2.7-2.6 1.3 0 8.6 5.2 7.3 5.3-0.4 0-2.5-1.2-4.7-2.6zm29.8 0.7c0.7-1.5 2.3-3.9 3.5-5.3l2.2-2.7-1.3 2.7c-0.7 1.5-2.3 3.9-3.5 5.3l-2.2 2.7zM179.3 172c1.3-1.5 2.7-2.7 3.1-2.7 0.4 0-0.4 1.2-1.7 2.7-1.3 1.5-2.7 2.7-3.1 2.7-0.4 0 0.4-1.2 1.7-2.7zm10.5-0.3-2.5-3 3 2.5c2.8 2.4 3.6 3.5 2.5 3.5-0.3 0-1.6-1.3-3-3zm119.6-0.2c-0.2-1.9 2.9-12 4.3-13.8 1.4-1.9 4.9-2.3 4.9-0.5 0 0.7-1 1.1-2.1 1-1.5-0.1-2.9 2.1-4.5 7.1-1.3 4-2.5 6.8-2.5 6.2zm57.4-4.7c-1.5-0.9-1.4-1.3 0.1-1.9 1.1-0.4 1.9 0.1 1.9 1.1 0 1 0 1.9-0.1 1.9-0.1 0-0.9-0.5-1.9-1.1zm-245.7-2.5c-1.7-2.1-1.6-2.2 0.5-0.5 1.3 1 2.3 2.1 2.3 2.3 0 1.1-1.1 0.4-2.8-1.8zm236.8-2.4c-2.5-2-2.5-2 0.4-0.6 1.7 0.8 3 1.7 3 2.1 0 1-0.7 0.7-3.4-1.5zM324 160c0-0.7 0.6-1.3 1.4-1.3 0.8 0 1 0.6 0.6 1.3-0.5 0.7-1.1 1.3-1.4 1.3-0.3 0-0.6-0.6-0.6-1.3zm5.3-12.7c-4.8-2.5-8.2-4.6-7.6-4.6 1.4-0.1 17 7.8 17 8.6 0 0.9 0.3 1-9.3-4zM106.5 147c-1.7-2.1-1.6-2.2 0.5-0.5 1.3 1 2.3 2.1 2.3 2.3 0 1.1-1.1 0.4-2.8-1.8zM182 141.3c1.3-1.5 2.7-2.7 3.1-2.7 0.4 0-0.4 1.2-1.7 2.7C182 142.8 180.6 144 180.3 144c-0.4 0 0.4-1.2 1.7-2.7zM99.8 139c-1.7-2.1-1.6-2.2 0.5-0.5 1.3 1 2.3 2.1 2.3 2.3 0 1.1-1.1 0.4-2.8-1.8zm235.5 1c-0.5-0.7-0.2-1.3 0.6-1.3 0.8 0 1.4 0.6 1.4 1.3 0 0.7-0.3 1.3-0.6 1.3-0.3 0-1-0.6-1.4-1.3zm-80.8-3.3c0.7-1.5 2.3-3.9 3.5-5.3l2.2-2.7-1.3 2.7c-0.7 1.5-2.3 3.9-3.5 5.3l-2.2 2.7zM327.8 136.4c1-0.4 2.1-0.3 2.6 0.1 0.4 0.4-0.3 0.8-1.7 0.7-1.6-0.1-1.9-0.4-0.8-0.8zM270.7 110.7C271.5 109.2 272.4 108 272.8 108c0.4 0 0 1.2-0.8 2.7-0.8 1.5-1.7 2.7-2.1 2.7-0.4 0 0-1.2 0.8-2.7zM70.5 104.3c-1.7-2.1-1.6-2.2 0.5-0.5 1.3 1 2.3 2.1 2.3 2.3 0 1.1-1.1 0.4-2.8-1.8zM224 106.2c0-0.3 1.1-1.3 2.3-2.3 2.1-1.7 2.2-1.6 0.5 0.5-1.7 2.2-2.8 2.9-2.8 1.8zM55.8 87c-1.7-2.1-1.6-2.2 0.5-0.5 1.3 1 2.3 2.1 2.3 2.3 0 1.1-1.1 0.4-2.8-1.8zM248 86.2c0-0.3 1.1-1.3 2.3-2.3 2.1-1.7 2.2-1.6 0.5 0.5C249.1 86.6 248 87.3 248 86.2ZM35.3 62.6c-0.5-0.8-1.9-1-3.1-0.6-1.8 0.7-1.9 0.5-0.5-0.9 1.4-1.4 2.1-1.2 4 0.6 1.3 1.3 1.9 2.3 1.4 2.3-0.5 0-1.3-0.6-1.8-1.4zM281.3 58.2c0-0.3 1.1-1.3 2.3-2.3 2.1-1.7 2.2-1.6 0.5 0.5-1.7 2.2-2.8 2.9-2.8 1.8zm25.3-21.3c0-0.3 1.1-1.3 2.3-2.3 2.1-1.7 2.2-1.6 0.5 0.5-1.7 2.2-2.8 2.9-2.8 1.8z"
    class="b" />
  <path d="m126.1 212.5c-4-1.6-5.4-3.6-41.1-62.2C52.9 97.5 32.4 62.9 33 62.3c0.5-0.5 41.8 47.9 84.3 98.7 28 33.6 30 36 29.5 36.9-0.7 1.1-14.7 12.6-17 13.9-1.4 0.8-2.8 1-3.7 0.7z"
    class="c" />
  <path d="m209.7 180.9c-11.4-7.1-13.4-8.3-14.6-8.3-0.5 0-2.8-1.4-5.2-3.2-3.9-2.8-4.5-3-5.7-2.1-16.6 14.1-21 17.6-21.2 17.4-0.5-0.6 10.2-29.1 12.3-32.6 1.2-2 3.7-5.2 5.7-7.1 3.9-3.8 33.3-29.1 53.8-46.3 87-72.9 89-74.6 89.4-74.2 0.2 0.2-1 2.4-2.5 4.9-2.8 4.6-44.2 70.2-48.9 77.5-1.4 2.1-12.1 19-23.8 37.6-23.6 37.4-27.1 42.6-28.4 42.6-0.5 0-5.4-2.8-10.8-6.2z"
    class="c" />
  <path d="m241.9 200.6c-8.5-5.7-15.7-10.7-16-11.1-0.9-1.4 10.9-21.3 41.5-69.6 42.6-67.5 62.8-98.4 63.1-96.8 0.3 1.7-5.3 32.4-13.8 74.6-5 25-7.4 35.5-8.8 38.2-1.9 3.7-14.9 23.9-37.4 58.1-6.2 9.4-11.7 17.1-12.2 17.1-0.5 0-7.9-4.6-16.4-10.3z"
    class="c" />
  <path d="m270.5 297.9c-0.2-0.4-1.2-6.4-2.1-13.3-2.7-21-3.6-23.3-13.9-36.2-3.3-4.1-6.5-8.2-7.2-9.2-1.1-1.7-0.2-3.3 30-49.8 17.1-26.4 31.7-48.6 32.3-49.3 1.1-1.3 2-0.9 14.7 5.7 23.5 12.2 49.6 26.1 50.4 26.9 1.1 1.1-1.7 0.3-22.6-6.3-22.3-7.1-34.7-10.7-36.4-10.7-0.7 0-1.7 0.8-2.3 1.7-1.6 2.5-8.5 25.4-25.9 85.8-8.5 29.3-15.6 53.8-16 54.4-0.3 0.6-0.8 0.7-1 0.3z"
    class="c" />
  <path d="m282.7 291.9c-5.7-2.1-6 0 3.8-34.2 11.1-38.5 25.3-87 27.3-93.4 1.8-5.6 2.8-5.9 8.4-3.1 3 1.5 3.4 2 3.2 4-0.6 5.1-27 99.5-33.7 120.8-2.4 7.5-3.2 8-9 5.9z"
    class="c" />
  <path d="m354.8 157.9c-18.9-9.6-31-16.2-31-16.9 0-1 3.3-3 5-3 1.7 0 14.1 7.9 28.4 18 13.3 9.4 13 9.7-2.4 1.9z" class="c" />
  <path d="m222.8 246.6c-60.1-20.6-88.3-30.5-88.9-31-1.3-1.2 48.6-44.5 51.3-44.5 1.4 0 6.6 5.9 29.9 33.9 31 37.1 44.3 53.9 42.4 53.6-0.1 0-15.7-5.4-34.7-11.9z"
    class="c" />
  <path d="M233.1 221.5C214.7 199.4 197.6 177.9 198.1 177.4c0.5-0.5 6.2 2.9 35.1 21.4 26.1 16.6 23.6 14.6 22 18.1-1.7 3.7-10.5 17.1-11.2 17.1-0.3 0-5.2-5.6-10.9-12.5z"
    class="c" />
  <path d="m9.7 316.4c0.4-0.8 19.7-20.4 42.9-43.5l42.1-42 9.6-3.8c5.3-2.1 13.1-5 17.3-6.6l7.7-2.8 27.6 9.5c22.4 7.7 27.3 9.7 26.1 10.3-0.8 0.4-27.9 13-60.2 27.8-32.3 14.9-70.5 32.5-84.8 39.3-14.4 6.7-26.7 12.5-27.5 12.7-1.2 0.4-1.3 0.2-0.6-1z"
    class="c" />
  <path d="m15.2 318.9c0.7-0.6 121-56.2 157-72.5 8.5-3.9 16.3-7 17.3-7 2.5 0 68.4 22.6 68.7 23.6 0.2 0.7-9.1 7.1-21.6 14.8-9.4 5.8-11.4 6.2-69.9 16.1-20.3 3.4-53.8 9.1-74.5 12.7C20.5 318.8 14.1 319.9 15.2 318.9Z"
    class="c" />
  <path d="m256.9 297.8c-19-12-22.2-14.1-22.2-14.7 0-0.7 18.3-12.3 23.4-14.7 2.9-1.4 3.7-1.5 4.2-0.7 0.7 1.2 2.7 13 3.9 23.9 0.4 4 1 8.4 1.2 9.8 0.2 1.4 0.1 2.5-0.3 2.5-0.4 0-5-2.7-10.2-6z"
    class="c" />
</svg>
